<mxfile host="65bd71144e">
    <diagram id="zK1BmbFyfCKdzvSAJIUO" name="Page-1">
        <mxGraphModel dx="4400" dy="3830" grid="1" gridSize="10" guides="1" tooltips="1" connect="1" arrows="1" fold="1" page="1" pageScale="1" pageWidth="850" pageHeight="1100" math="0" shadow="0">
            <root>
                <mxCell id="0"/>
                <mxCell id="1" parent="0"/>
                <mxCell id="163" value="" style="whiteSpace=wrap;html=1;aspect=fixed;" vertex="1" parent="1">
                    <mxGeometry x="110" y="160" width="4400" height="4400" as="geometry"/>
                </mxCell>
                <mxCell id="164" value="Systeme de covoiturage" style="rounded=0;whiteSpace=wrap;html=1;fillColor=#dae8fc;strokeColor=#6c8ebf;" vertex="1" parent="1">
                    <mxGeometry x="2380" y="180" width="290" height="40" as="geometry"/>
                </mxCell>
                <mxCell id="165" value="admin" style="shape=umlActor;verticalLabelPosition=bottom;verticalAlign=top;html=1;outlineConnect=0;" vertex="1" parent="1">
                    <mxGeometry x="50" y="240" width="30" height="60" as="geometry"/>
                </mxCell>
                <mxCell id="166" value="Visualiser les statistiques" style="ellipse;whiteSpace=wrap;html=1;" vertex="1" parent="1">
                    <mxGeometry x="210" y="220" width="180" height="40" as="geometry"/>
                </mxCell>
                <mxCell id="167" value="Gestion de la crÃ©ation de comptes" style="ellipse;whiteSpace=wrap;html=1;" vertex="1" parent="1">
                    <mxGeometry x="335" y="330" width="195" height="50" as="geometry"/>
                </mxCell>
                <mxCell id="168" value="Activer Compte" style="ellipse;whiteSpace=wrap;html=1;" vertex="1" parent="1">
                    <mxGeometry x="750" y="370" width="128.57" height="50" as="geometry"/>
                </mxCell>
                <mxCell id="169" value="Desactiver Compte" style="ellipse;whiteSpace=wrap;html=1;" vertex="1" parent="1">
                    <mxGeometry x="750" y="430" width="128.57" height="50" as="geometry"/>
                </mxCell>
                <mxCell id="170" value="Suspender Compte" style="ellipse;whiteSpace=wrap;html=1;" vertex="1" parent="1">
                    <mxGeometry x="750" y="490" width="128.57" height="50" as="geometry"/>
                </mxCell>
                <mxCell id="171" value="Supprimer Compte" style="ellipse;whiteSpace=wrap;html=1;" vertex="1" parent="1">
                    <mxGeometry x="750" y="550" width="128.57" height="50" as="geometry"/>
                </mxCell>
                <mxCell id="172" value="" style="endArrow=block;endSize=16;endFill=0;html=1;rounded=0;exitX=0.046;exitY=0.381;exitDx=0;exitDy=0;exitPerimeter=0;" edge="1" parent="1" source="168">
                    <mxGeometry width="160" relative="1" as="geometry">
                        <mxPoint x="756.2600000000039" y="380" as="sourcePoint"/>
                        <mxPoint x="514.9989315965086" y="342.82620959312715" as="targetPoint"/>
                    </mxGeometry>
                </mxCell>
                <mxCell id="173" value="" style="endArrow=block;endSize=16;endFill=0;html=1;rounded=0;exitX=0;exitY=0.5;exitDx=0;exitDy=0;entryX=0.963;entryY=0.743;entryDx=0;entryDy=0;entryPerimeter=0;" edge="1" parent="1" source="169" target="167">
                    <mxGeometry width="160" relative="1" as="geometry">
                        <mxPoint x="550" y="355" as="sourcePoint"/>
                        <mxPoint x="400" y="355" as="targetPoint"/>
                    </mxGeometry>
                </mxCell>
                <mxCell id="174" value="" style="endArrow=block;endSize=16;endFill=0;html=1;rounded=0;exitX=0;exitY=0.5;exitDx=0;exitDy=0;" edge="1" parent="1" source="170" target="167">
                    <mxGeometry width="160" relative="1" as="geometry">
                        <mxPoint x="560" y="365" as="sourcePoint"/>
                        <mxPoint x="410" y="365" as="targetPoint"/>
                    </mxGeometry>
                </mxCell>
                <mxCell id="175" value="" style="endArrow=block;endSize=16;endFill=0;html=1;rounded=0;exitX=0;exitY=0.5;exitDx=0;exitDy=0;entryX=0.539;entryY=0.956;entryDx=0;entryDy=0;entryPerimeter=0;" edge="1" parent="1" source="171" target="167">
                    <mxGeometry width="160" relative="1" as="geometry">
                        <mxPoint x="570" y="375" as="sourcePoint"/>
                        <mxPoint x="420" y="375" as="targetPoint"/>
                    </mxGeometry>
                </mxCell>
                <mxCell id="176" value="" style="endArrow=none;html=1;rounded=0;entryX=0;entryY=0.5;entryDx=0;entryDy=0;" edge="1" parent="1" source="165" target="167">
                    <mxGeometry width="50" height="50" relative="1" as="geometry">
                        <mxPoint x="70" y="295" as="sourcePoint"/>
                        <mxPoint x="120" y="245" as="targetPoint"/>
                    </mxGeometry>
                </mxCell>
                <mxCell id="177" value="" style="endArrow=none;html=1;rounded=0;entryX=0;entryY=0.5;entryDx=0;entryDy=0;" edge="1" parent="1">
                    <mxGeometry width="50" height="50" relative="1" as="geometry">
                        <mxPoint x="80" y="280" as="sourcePoint"/>
                        <mxPoint x="210" y="237" as="targetPoint"/>
                    </mxGeometry>
                </mxCell>
                <mxCell id="178" value="Visualiser le Profil" style="ellipse;whiteSpace=wrap;html=1;" vertex="1" parent="1">
                    <mxGeometry x="750" y="610" width="128.57" height="50" as="geometry"/>
                </mxCell>
                <mxCell id="179" value="" style="endArrow=block;endSize=16;endFill=0;html=1;rounded=0;exitX=0.021;exitY=0.385;exitDx=0;exitDy=0;entryX=0.335;entryY=0.997;entryDx=0;entryDy=0;entryPerimeter=0;exitPerimeter=0;" edge="1" parent="1" source="178" target="167">
                    <mxGeometry width="160" relative="1" as="geometry">
                        <mxPoint x="542" y="578" as="sourcePoint"/>
                        <mxPoint x="309" y="430" as="targetPoint"/>
                    </mxGeometry>
                </mxCell>
                <mxCell id="180" value="Filtrer Par Statut" style="ellipse;whiteSpace=wrap;html=1;" vertex="1" parent="1">
                    <mxGeometry x="210" y="660" width="180" height="40" as="geometry"/>
                </mxCell>
                <mxCell id="181" value="Gestion des recherches" style="ellipse;whiteSpace=wrap;html=1;" vertex="1" parent="1">
                    <mxGeometry x="210" y="760" width="180" height="50" as="geometry"/>
                </mxCell>
                <mxCell id="182" value="Rechercher Par Nom" style="ellipse;whiteSpace=wrap;html=1;" vertex="1" parent="1">
                    <mxGeometry x="450" y="730" width="128.57" height="50" as="geometry"/>
                </mxCell>
                <mxCell id="183" value="Rechercher Par Email" style="ellipse;whiteSpace=wrap;html=1;" vertex="1" parent="1">
                    <mxGeometry x="450" y="800" width="128.57" height="50" as="geometry"/>
                </mxCell>
                <mxCell id="184" value="Rechercher Par Telephone" style="ellipse;whiteSpace=wrap;html=1;" vertex="1" parent="1">
                    <mxGeometry x="450" y="860" width="128.57" height="50" as="geometry"/>
                </mxCell>
                <mxCell id="185" value="" style="endArrow=block;endSize=16;endFill=0;html=1;rounded=0;exitX=0.021;exitY=0.385;exitDx=0;exitDy=0;entryX=0.542;entryY=1.039;entryDx=0;entryDy=0;entryPerimeter=0;exitPerimeter=0;" edge="1" parent="1" target="181">
                    <mxGeometry width="160" relative="1" as="geometry">
                        <mxPoint x="450" y="889" as="sourcePoint"/>
                        <mxPoint x="177" y="690" as="targetPoint"/>
                    </mxGeometry>
                </mxCell>
                <mxCell id="186" value="" style="endArrow=block;endSize=16;endFill=0;html=1;rounded=0;exitX=0.021;exitY=0.385;exitDx=0;exitDy=0;entryX=1;entryY=1;entryDx=0;entryDy=0;exitPerimeter=0;" edge="1" parent="1" target="181">
                    <mxGeometry width="160" relative="1" as="geometry">
                        <mxPoint x="450" y="826" as="sourcePoint"/>
                        <mxPoint x="308" y="750" as="targetPoint"/>
                    </mxGeometry>
                </mxCell>
                <mxCell id="187" value="" style="endArrow=block;endSize=16;endFill=0;html=1;rounded=0;exitX=0.021;exitY=0.385;exitDx=0;exitDy=0;entryX=1;entryY=0.5;entryDx=0;entryDy=0;exitPerimeter=0;" edge="1" parent="1" target="181">
                    <mxGeometry width="160" relative="1" as="geometry">
                        <mxPoint x="450" y="756" as="sourcePoint"/>
                        <mxPoint x="364" y="730" as="targetPoint"/>
                    </mxGeometry>
                </mxCell>
                <mxCell id="188" value="" style="endArrow=none;html=1;rounded=0;entryX=0;entryY=0.5;entryDx=0;entryDy=0;" edge="1" parent="1">
                    <mxGeometry width="50" height="50" relative="1" as="geometry">
                        <mxPoint x="80" y="280" as="sourcePoint"/>
                        <mxPoint x="210" y="777" as="targetPoint"/>
                    </mxGeometry>
                </mxCell>
                <mxCell id="189" value="" style="endArrow=none;html=1;rounded=0;entryX=0.11;entryY=0.214;entryDx=0;entryDy=0;entryPerimeter=0;" edge="1" parent="1" target="180">
                    <mxGeometry width="50" height="50" relative="1" as="geometry">
                        <mxPoint x="90" y="280" as="sourcePoint"/>
                        <mxPoint x="220" y="647" as="targetPoint"/>
                    </mxGeometry>
                </mxCell>
                <mxCell id="190" value="S&#39;authentifier" style="ellipse;whiteSpace=wrap;html=1;" vertex="1" parent="1">
                    <mxGeometry x="2240" y="510" width="180" height="70" as="geometry"/>
                </mxCell>
                <mxCell id="191" value="" style="html=1;verticalAlign=bottom;endArrow=open;dashed=1;endSize=8;curved=0;rounded=0;entryX=0.037;entryY=0.359;entryDx=0;entryDy=0;entryPerimeter=0;exitX=1;exitY=0.5;exitDx=0;exitDy=0;" edge="1" parent="1" source="166" target="190">
                    <mxGeometry relative="1" as="geometry">
                        <mxPoint x="820" y="420" as="sourcePoint"/>
                        <mxPoint x="740" y="420" as="targetPoint"/>
                    </mxGeometry>
                </mxCell>
                <mxCell id="192" value="&amp;lt;&amp;lt;include&amp;gt;&amp;gt;" style="edgeLabel;html=1;align=center;verticalAlign=middle;resizable=0;points=[];" vertex="1" connectable="0" parent="191">
                    <mxGeometry x="-0.5776" y="1" relative="1" as="geometry">
                        <mxPoint as="offset"/>
                    </mxGeometry>
                </mxCell>
                <mxCell id="193" value="" style="html=1;verticalAlign=bottom;endArrow=open;dashed=1;endSize=8;curved=0;rounded=0;exitX=0.73;exitY=0.09;exitDx=0;exitDy=0;exitPerimeter=0;" edge="1" parent="1" source="167" target="190">
                    <mxGeometry relative="1" as="geometry">
                        <mxPoint x="510" y="330" as="sourcePoint"/>
                        <mxPoint x="1717" y="420" as="targetPoint"/>
                    </mxGeometry>
                </mxCell>
                <mxCell id="194" value="&amp;lt;&amp;lt;include&amp;gt;&amp;gt;" style="edgeLabel;html=1;align=center;verticalAlign=middle;resizable=0;points=[];" vertex="1" connectable="0" parent="193">
                    <mxGeometry x="-0.5776" y="1" relative="1" as="geometry">
                        <mxPoint as="offset"/>
                    </mxGeometry>
                </mxCell>
                <mxCell id="195" value="" style="html=1;verticalAlign=bottom;endArrow=open;dashed=1;endSize=8;curved=0;rounded=0;exitX=1;exitY=0.5;exitDx=0;exitDy=0;entryX=0.555;entryY=1.072;entryDx=0;entryDy=0;entryPerimeter=0;" edge="1" parent="1" target="190">
                    <mxGeometry relative="1" as="geometry">
                        <mxPoint x="380" y="670" as="sourcePoint"/>
                        <mxPoint x="1460" y="675" as="targetPoint"/>
                        <Array as="points">
                            <mxPoint x="1000" y="720"/>
                        </Array>
                    </mxGeometry>
                </mxCell>
                <mxCell id="196" value="&amp;lt;&amp;lt;include&amp;gt;&amp;gt;" style="edgeLabel;html=1;align=center;verticalAlign=middle;resizable=0;points=[];" vertex="1" connectable="0" parent="195">
                    <mxGeometry x="-0.5776" y="1" relative="1" as="geometry">
                        <mxPoint as="offset"/>
                    </mxGeometry>
                </mxCell>
                <mxCell id="197" value="" style="html=1;verticalAlign=bottom;endArrow=open;dashed=1;endSize=8;curved=0;rounded=0;exitX=0.5;exitY=0;exitDx=0;exitDy=0;entryX=0.778;entryY=0.857;entryDx=0;entryDy=0;entryPerimeter=0;" edge="1" parent="1" source="181" target="190">
                    <mxGeometry relative="1" as="geometry">
                        <mxPoint x="440" y="835" as="sourcePoint"/>
                        <mxPoint x="1750" y="540" as="targetPoint"/>
                        <Array as="points">
                            <mxPoint x="550" y="710"/>
                            <mxPoint x="1040" y="780"/>
                        </Array>
                    </mxGeometry>
                </mxCell>
                <mxCell id="198" value="&amp;lt;&amp;lt;include&amp;gt;&amp;gt;" style="edgeLabel;html=1;align=center;verticalAlign=middle;resizable=0;points=[];" vertex="1" connectable="0" parent="197">
                    <mxGeometry x="-0.5776" y="1" relative="1" as="geometry">
                        <mxPoint as="offset"/>
                    </mxGeometry>
                </mxCell>
                <mxCell id="199" value="conducteur" style="shape=umlActor;verticalLabelPosition=bottom;verticalAlign=top;html=1;outlineConnect=0;" vertex="1" parent="1">
                    <mxGeometry x="40" y="1120" width="50" height="100" as="geometry"/>
                </mxCell>
                <mxCell id="200" value=" Visualiser le rÃ©capitulatif de mes activitÃ©s de conduite" style="ellipse;whiteSpace=wrap;html=1;" vertex="1" parent="1">
                    <mxGeometry x="190" y="1160" width="260" height="60" as="geometry"/>
                </mxCell>
                <mxCell id="201" value="Courses TerminÃ©es" style="ellipse;whiteSpace=wrap;html=1;" vertex="1" parent="1">
                    <mxGeometry x="621.4300000000001" y="1100" width="128.57" height="50" as="geometry"/>
                </mxCell>
                <mxCell id="202" value="Revenu Total" style="ellipse;whiteSpace=wrap;html=1;" vertex="1" parent="1">
                    <mxGeometry x="621.4300000000001" y="1270" width="128.57" height="50" as="geometry"/>
                </mxCell>
                <mxCell id="203" value="Note" style="ellipse;whiteSpace=wrap;html=1;" vertex="1" parent="1">
                    <mxGeometry x="621.4300000000001" y="1180" width="128.57" height="50" as="geometry"/>
                </mxCell>
                <mxCell id="204" value="" style="html=1;verticalAlign=bottom;endArrow=open;dashed=1;endSize=8;curved=0;rounded=0;entryX=0.989;entryY=0.378;entryDx=0;entryDy=0;exitX=0;exitY=0.5;exitDx=0;exitDy=0;entryPerimeter=0;" edge="1" parent="1" source="201" target="200">
                    <mxGeometry relative="1" as="geometry">
                        <mxPoint x="400" y="1160" as="sourcePoint"/>
                        <mxPoint x="1607" y="1245" as="targetPoint"/>
                    </mxGeometry>
                </mxCell>
                <mxCell id="205" value="&amp;lt;&amp;lt;extends&amp;gt;&amp;gt;" style="edgeLabel;html=1;align=center;verticalAlign=middle;resizable=0;points=[];" vertex="1" connectable="0" parent="204">
                    <mxGeometry x="-0.5776" y="1" relative="1" as="geometry">
                        <mxPoint x="-25" y="12" as="offset"/>
                    </mxGeometry>
                </mxCell>
                <mxCell id="206" value="" style="html=1;verticalAlign=bottom;endArrow=open;dashed=1;endSize=8;curved=0;rounded=0;entryX=0.982;entryY=0.621;entryDx=0;entryDy=0;exitX=0;exitY=0.5;exitDx=0;exitDy=0;entryPerimeter=0;" edge="1" parent="1" target="200">
                    <mxGeometry relative="1" as="geometry">
                        <mxPoint x="621.43" y="1200" as="sourcePoint"/>
                        <mxPoint x="447.43" y="1258" as="targetPoint"/>
                    </mxGeometry>
                </mxCell>
                <mxCell id="207" value="&amp;lt;&amp;lt;extends&amp;gt;&amp;gt;" style="edgeLabel;html=1;align=center;verticalAlign=middle;resizable=0;points=[];rotation=0;" vertex="1" connectable="0" parent="206">
                    <mxGeometry x="-0.5776" y="1" relative="1" as="geometry">
                        <mxPoint x="-44" y="-10" as="offset"/>
                    </mxGeometry>
                </mxCell>
                <mxCell id="208" value="" style="html=1;verticalAlign=bottom;endArrow=open;dashed=1;endSize=8;curved=0;rounded=0;entryX=0.885;entryY=0.833;entryDx=0;entryDy=0;exitX=0.026;exitY=0.606;exitDx=0;exitDy=0;entryPerimeter=0;exitPerimeter=0;" edge="1" parent="1" source="202" target="200">
                    <mxGeometry relative="1" as="geometry">
                        <mxPoint x="621.43" y="1290" as="sourcePoint"/>
                        <mxPoint x="447.43" y="1348" as="targetPoint"/>
                    </mxGeometry>
                </mxCell>
                <mxCell id="209" value="&amp;lt;&amp;lt;extends&amp;gt;&amp;gt;" style="edgeLabel;html=1;align=center;verticalAlign=middle;resizable=0;points=[];" vertex="1" connectable="0" parent="208">
                    <mxGeometry x="-0.5776" y="1" relative="1" as="geometry">
                        <mxPoint x="-41" y="-22" as="offset"/>
                    </mxGeometry>
                </mxCell>
                <mxCell id="210" value="" style="endArrow=none;html=1;rounded=0;entryX=0;entryY=0.5;entryDx=0;entryDy=0;" edge="1" parent="1" source="199" target="200">
                    <mxGeometry width="50" height="50" relative="1" as="geometry">
                        <mxPoint x="90" y="1200" as="sourcePoint"/>
                        <mxPoint x="260" y="1667" as="targetPoint"/>
                    </mxGeometry>
                </mxCell>
                <mxCell id="211" value="conductrice" style="shape=umlActor;verticalLabelPosition=bottom;verticalAlign=top;html=1;outlineConnect=0;" vertex="1" parent="1">
                    <mxGeometry x="50" y="2470" width="30" height="60" as="geometry"/>
                </mxCell>
                <mxCell id="212" value=" Partager ma disponibilitÃ©" style="ellipse;whiteSpace=wrap;html=1;" vertex="1" parent="1">
                    <mxGeometry x="230" y="2220" width="260" height="60" as="geometry"/>
                </mxCell>
                <mxCell id="213" value="&lt;p data-pm-slice=&quot;0 0 []&quot;&gt;Le conducteur peut partager sa disponibilitÃ©, laquelle peut Ãªtre&amp;nbsp;&lt;span style=&quot;background-color: transparent; color: light-dark(rgb(0, 0, 0), rgb(255, 255, 255));&quot;&gt;consultÃ©e par tout passager, quel que soit son genre, quâil soit fÃ©minin ou masculin.&lt;/span&gt;&lt;/p&gt;" style="shape=note;whiteSpace=wrap;html=1;backgroundOutline=1;darkOpacity=0.05;align=left;" vertex="1" parent="1">
                    <mxGeometry x="530" y="2250" width="400" height="60" as="geometry"/>
                </mxCell>
                <mxCell id="214" value="" style="endArrow=none;dashed=1;html=1;dashPattern=1 3;strokeWidth=2;rounded=0;entryX=0;entryY=0;entryDx=0;entryDy=0;entryPerimeter=0;exitX=0.675;exitY=0.045;exitDx=0;exitDy=0;exitPerimeter=0;" edge="1" parent="1" source="217" target="218">
                    <mxGeometry width="50" height="50" relative="1" as="geometry">
                        <mxPoint x="422.1241071126584" y="1560.0031033265952" as="sourcePoint"/>
                        <mxPoint x="500" y="1611.17" as="targetPoint"/>
                        <Array as="points">
                            <mxPoint x="490" y="2460"/>
                        </Array>
                    </mxGeometry>
                </mxCell>
                <mxCell id="215" value="" style="endArrow=none;html=1;rounded=0;entryX=0;entryY=0.5;entryDx=0;entryDy=0;" edge="1" parent="1" target="212">
                    <mxGeometry width="50" height="50" relative="1" as="geometry">
                        <mxPoint x="90" y="1230" as="sourcePoint"/>
                        <mxPoint x="200" y="1339.62" as="targetPoint"/>
                        <Array as="points">
                            <mxPoint x="110" y="1750"/>
                        </Array>
                    </mxGeometry>
                </mxCell>
                <mxCell id="216" value="" style="endArrow=block;endSize=16;endFill=0;html=1;rounded=0;exitX=0;exitY=0.5;exitDx=0;exitDy=0;" edge="1" parent="1" source="223">
                    <mxGeometry width="160" relative="1" as="geometry">
                        <mxPoint x="450" y="1825" as="sourcePoint"/>
                        <mxPoint x="450" y="1405" as="targetPoint"/>
                        <Array as="points">
                            <mxPoint x="500" y="1420"/>
                            <mxPoint x="480" y="1430"/>
                        </Array>
                    </mxGeometry>
                </mxCell>
                <mxCell id="217" value="Activer Mode Femmes" style="ellipse;whiteSpace=wrap;html=1;" vertex="1" parent="1">
                    <mxGeometry x="220" y="2490" width="260" height="60" as="geometry"/>
                </mxCell>
                <mxCell id="218" value="&lt;p data-pm-slice=&quot;0 0 []&quot;&gt;DisponibilitÃ© visible uniquement pour les passagÃ¨res fÃ©minines&lt;/p&gt;" style="shape=note;whiteSpace=wrap;html=1;backgroundOutline=1;darkOpacity=0.05;align=left;" vertex="1" parent="1">
                    <mxGeometry x="530" y="2490" width="370" height="60" as="geometry"/>
                </mxCell>
                <mxCell id="219" value="" style="endArrow=none;dashed=1;html=1;dashPattern=1 3;strokeWidth=2;rounded=0;entryX=0;entryY=0.5;entryDx=0;entryDy=0;entryPerimeter=0;exitX=0.5;exitY=0;exitDx=0;exitDy=0;" edge="1" parent="1" source="212">
                    <mxGeometry width="50" height="50" relative="1" as="geometry">
                        <mxPoint x="460" y="2210" as="sourcePoint"/>
                        <mxPoint x="537" y="2261" as="targetPoint"/>
                        <Array as="points">
                            <mxPoint x="507" y="2211"/>
                        </Array>
                    </mxGeometry>
                </mxCell>
                <mxCell id="220" value="" style="endArrow=none;html=1;rounded=0;entryX=0;entryY=0.5;entryDx=0;entryDy=0;" edge="1" parent="1" source="211" target="217">
                    <mxGeometry width="50" height="50" relative="1" as="geometry">
                        <mxPoint x="130" y="1442" as="sourcePoint"/>
                        <mxPoint x="267" y="1590" as="targetPoint"/>
                    </mxGeometry>
                </mxCell>
                <mxCell id="221" value=" Gestion des demandes de passagers" style="ellipse;whiteSpace=wrap;html=1;" vertex="1" parent="1">
                    <mxGeometry x="190" y="1380" width="260" height="60" as="geometry"/>
                </mxCell>
                <mxCell id="222" value="Accepter demande" style="ellipse;whiteSpace=wrap;html=1;" vertex="1" parent="1">
                    <mxGeometry x="560" y="1490" width="128.57" height="50" as="geometry"/>
                </mxCell>
                <mxCell id="223" value="Refuser demande" style="ellipse;whiteSpace=wrap;html=1;" vertex="1" parent="1">
                    <mxGeometry x="560" y="1380" width="128.57" height="50" as="geometry"/>
                </mxCell>
                <mxCell id="224" value="Visualiser les informations de la demande" style="ellipse;whiteSpace=wrap;html=1;" vertex="1" parent="1">
                    <mxGeometry x="560.0000000000001" y="1590" width="128.57" height="50" as="geometry"/>
                </mxCell>
                <mxCell id="225" value="Visualiser les informations de la demande" style="ellipse;whiteSpace=wrap;html=1;" vertex="1" parent="1">
                    <mxGeometry x="560.0000000000001" y="1680" width="128.57" height="50" as="geometry"/>
                </mxCell>
                <mxCell id="226" value="" style="endArrow=block;endSize=16;endFill=0;html=1;rounded=0;" edge="1" parent="1">
                    <mxGeometry width="160" relative="1" as="geometry">
                        <mxPoint x="60" y="2490" as="sourcePoint"/>
                        <mxPoint x="50" y="1250" as="targetPoint"/>
                        <Array as="points">
                            <mxPoint x="50" y="2450"/>
                            <mxPoint x="50" y="2350"/>
                        </Array>
                    </mxGeometry>
                </mxCell>
                <mxCell id="227" value="" style="endArrow=block;endSize=16;endFill=0;html=1;rounded=0;exitX=0;exitY=0.5;exitDx=0;exitDy=0;" edge="1" parent="1" source="222">
                    <mxGeometry width="160" relative="1" as="geometry">
                        <mxPoint x="530" y="1430" as="sourcePoint"/>
                        <mxPoint x="420" y="1430" as="targetPoint"/>
                        <Array as="points">
                            <mxPoint x="470" y="1460"/>
                            <mxPoint x="450" y="1455"/>
                        </Array>
                    </mxGeometry>
                </mxCell>
                <mxCell id="228" value="" style="endArrow=block;endSize=16;endFill=0;html=1;rounded=0;exitX=0;exitY=0.5;exitDx=0;exitDy=0;entryX=0.758;entryY=0.972;entryDx=0;entryDy=0;entryPerimeter=0;" edge="1" parent="1" target="221">
                    <mxGeometry width="160" relative="1" as="geometry">
                        <mxPoint x="560" y="1615" as="sourcePoint"/>
                        <mxPoint x="420" y="1530" as="targetPoint"/>
                        <Array as="points">
                            <mxPoint x="470" y="1560"/>
                            <mxPoint x="450" y="1555"/>
                        </Array>
                    </mxGeometry>
                </mxCell>
                <mxCell id="229" value="" style="endArrow=block;endSize=16;endFill=0;html=1;rounded=0;exitX=0;exitY=0.5;exitDx=0;exitDy=0;entryX=0.573;entryY=0.972;entryDx=0;entryDy=0;entryPerimeter=0;" edge="1" parent="1" target="221">
                    <mxGeometry width="160" relative="1" as="geometry">
                        <mxPoint x="560" y="1717" as="sourcePoint"/>
                        <mxPoint x="387" y="1540" as="targetPoint"/>
                        <Array as="points">
                            <mxPoint x="470" y="1662"/>
                            <mxPoint x="450" y="1657"/>
                        </Array>
                    </mxGeometry>
                </mxCell>
                <mxCell id="230" value="Commencer la route" style="ellipse;whiteSpace=wrap;html=1;" vertex="1" parent="1">
                    <mxGeometry x="810" y="1490" width="128.57" height="50" as="geometry"/>
                </mxCell>
                <mxCell id="231" value="Marker la course complete" style="ellipse;whiteSpace=wrap;html=1;" vertex="1" parent="1">
                    <mxGeometry x="1060" y="1490" width="128.57" height="50" as="geometry"/>
                </mxCell>
                <mxCell id="232" value="" style="html=1;verticalAlign=bottom;endArrow=open;dashed=1;endSize=8;curved=0;rounded=0;entryX=0;entryY=0.5;entryDx=0;entryDy=0;exitX=0.978;exitY=0.515;exitDx=0;exitDy=0;exitPerimeter=0;" edge="1" parent="1" source="222" target="230">
                    <mxGeometry relative="1" as="geometry">
                        <mxPoint x="760" y="1515" as="sourcePoint"/>
                        <mxPoint x="720" y="1514.83" as="targetPoint"/>
                    </mxGeometry>
                </mxCell>
                <mxCell id="233" value="&amp;lt;&amp;lt;include&amp;gt;&amp;gt;" style="edgeLabel;html=1;align=center;verticalAlign=middle;resizable=0;points=[];rotation=0;" vertex="1" connectable="0" parent="232">
                    <mxGeometry x="-0.5776" y="1" relative="1" as="geometry">
                        <mxPoint x="34" y="-1" as="offset"/>
                    </mxGeometry>
                </mxCell>
                <mxCell id="234" value="" style="html=1;verticalAlign=bottom;endArrow=open;dashed=1;endSize=8;curved=0;rounded=0;entryX=-0.014;entryY=0.491;entryDx=0;entryDy=0;exitX=0.978;exitY=0.515;exitDx=0;exitDy=0;exitPerimeter=0;entryPerimeter=0;" edge="1" parent="1" target="231">
                    <mxGeometry relative="1" as="geometry">
                        <mxPoint x="938.5699999999999" y="1515.5" as="sourcePoint"/>
                        <mxPoint x="1062.57" y="1514.5" as="targetPoint"/>
                    </mxGeometry>
                </mxCell>
                <mxCell id="235" value="&amp;lt;&amp;lt;include&amp;gt;&amp;gt;" style="edgeLabel;html=1;align=center;verticalAlign=middle;resizable=0;points=[];rotation=0;" vertex="1" connectable="0" parent="234">
                    <mxGeometry x="-0.5776" y="1" relative="1" as="geometry">
                        <mxPoint x="34" y="-1" as="offset"/>
                    </mxGeometry>
                </mxCell>
                <mxCell id="236" value="Ãvaluer le conducteur" style="ellipse;whiteSpace=wrap;html=1;" vertex="1" parent="1">
                    <mxGeometry x="1330" y="1490" width="128.57" height="50" as="geometry"/>
                </mxCell>
                <mxCell id="237" value="" style="html=1;verticalAlign=bottom;endArrow=open;dashed=1;endSize=8;curved=0;rounded=0;exitX=0.978;exitY=0.515;exitDx=0;exitDy=0;exitPerimeter=0;" edge="1" parent="1" target="236">
                    <mxGeometry relative="1" as="geometry">
                        <mxPoint x="1188.57" y="1515.08" as="sourcePoint"/>
                        <mxPoint x="1308" y="1514.58" as="targetPoint"/>
                    </mxGeometry>
                </mxCell>
                <mxCell id="238" value="&amp;lt;&amp;lt;include&amp;gt;&amp;gt;" style="edgeLabel;html=1;align=center;verticalAlign=middle;resizable=0;points=[];rotation=0;" vertex="1" connectable="0" parent="237">
                    <mxGeometry x="-0.5776" y="1" relative="1" as="geometry">
                        <mxPoint x="34" y="-1" as="offset"/>
                    </mxGeometry>
                </mxCell>
                <mxCell id="239" value="Ãvaluer avec des Ã©toiles" style="ellipse;whiteSpace=wrap;html=1;" vertex="1" parent="1">
                    <mxGeometry x="1590" y="1460" width="128.57" height="50" as="geometry"/>
                </mxCell>
                <mxCell id="240" value="Ajouter un commentaire" style="ellipse;whiteSpace=wrap;html=1;" vertex="1" parent="1">
                    <mxGeometry x="1580" y="1570" width="128.57" height="50" as="geometry"/>
                </mxCell>
                <mxCell id="241" value="" style="html=1;verticalAlign=bottom;endArrow=open;dashed=1;endSize=8;curved=0;rounded=0;exitX=0.996;exitY=0.417;exitDx=0;exitDy=0;exitPerimeter=0;entryX=0.019;entryY=0.414;entryDx=0;entryDy=0;entryPerimeter=0;" edge="1" parent="1" source="236" target="239">
                    <mxGeometry relative="1" as="geometry">
                        <mxPoint x="1379.29" y="1470.08" as="sourcePoint"/>
                        <mxPoint x="1520.72" y="1470" as="targetPoint"/>
                    </mxGeometry>
                </mxCell>
                <mxCell id="242" value="&amp;lt;&amp;lt;include&amp;gt;&amp;gt;" style="edgeLabel;html=1;align=center;verticalAlign=middle;resizable=0;points=[];rotation=0;" vertex="1" connectable="0" parent="241">
                    <mxGeometry x="-0.5776" y="1" relative="1" as="geometry">
                        <mxPoint x="34" y="-3" as="offset"/>
                    </mxGeometry>
                </mxCell>
                <mxCell id="243" value="" style="html=1;verticalAlign=bottom;endArrow=open;dashed=1;endSize=8;curved=0;rounded=0;exitX=0;exitY=0.5;exitDx=0;exitDy=0;entryX=1;entryY=1;entryDx=0;entryDy=0;" edge="1" parent="1" source="240" target="236">
                    <mxGeometry relative="1" as="geometry">
                        <mxPoint x="1446" y="1620" as="sourcePoint"/>
                        <mxPoint x="1580" y="1590" as="targetPoint"/>
                    </mxGeometry>
                </mxCell>
                <mxCell id="244" value="&amp;lt;&amp;lt;extends&amp;gt;&amp;gt;" style="edgeLabel;html=1;align=center;verticalAlign=middle;resizable=0;points=[];rotation=0;" vertex="1" connectable="0" parent="243">
                    <mxGeometry x="-0.5776" y="1" relative="1" as="geometry">
                        <mxPoint x="-36" y="-14" as="offset"/>
                    </mxGeometry>
                </mxCell>
                <mxCell id="245" value=" Visualiser les statistiques" style="ellipse;whiteSpace=wrap;html=1;" vertex="1" parent="1">
                    <mxGeometry x="190" y="1770" width="260" height="60" as="geometry"/>
                </mxCell>
                <mxCell id="246" value="Historique des gains" style="ellipse;whiteSpace=wrap;html=1;" vertex="1" parent="1">
                    <mxGeometry x="520.0000000000001" y="1800" width="128.57" height="50" as="geometry"/>
                </mxCell>
                <mxCell id="247" value="Gains par jour de la semaine" style="ellipse;whiteSpace=wrap;html=1;" vertex="1" parent="1">
                    <mxGeometry x="520.0000000000001" y="1890" width="128.57" height="50" as="geometry"/>
                </mxCell>
                <mxCell id="248" value="" style="html=1;verticalAlign=bottom;endArrow=open;dashed=1;endSize=8;curved=0;rounded=0;entryX=0.578;entryY=1.028;entryDx=0;entryDy=0;exitX=-0.013;exitY=0.433;exitDx=0;exitDy=0;entryPerimeter=0;exitPerimeter=0;" edge="1" parent="1" source="247" target="245">
                    <mxGeometry relative="1" as="geometry">
                        <mxPoint x="528" y="1920" as="sourcePoint"/>
                        <mxPoint x="323" y="1830" as="targetPoint"/>
                    </mxGeometry>
                </mxCell>
                <mxCell id="249" value="&amp;lt;&amp;lt;extends&amp;gt;&amp;gt;" style="edgeLabel;html=1;align=center;verticalAlign=middle;resizable=0;points=[];" vertex="1" connectable="0" parent="248">
                    <mxGeometry x="-0.5776" y="1" relative="1" as="geometry">
                        <mxPoint x="-41" y="-22" as="offset"/>
                    </mxGeometry>
                </mxCell>
                <mxCell id="250" value="" style="html=1;verticalAlign=bottom;endArrow=open;dashed=1;endSize=8;curved=0;rounded=0;entryX=0.666;entryY=-0.012;entryDx=0;entryDy=0;exitX=-0.013;exitY=0.433;exitDx=0;exitDy=0;entryPerimeter=0;exitPerimeter=0;" edge="1" parent="1" target="245">
                    <mxGeometry relative="1" as="geometry">
                        <mxPoint x="558" y="1800" as="sourcePoint"/>
                        <mxPoint x="380" y="1720" as="targetPoint"/>
                    </mxGeometry>
                </mxCell>
                <mxCell id="251" value="&amp;lt;&amp;lt;extends&amp;gt;&amp;gt;" style="edgeLabel;html=1;align=center;verticalAlign=middle;resizable=0;points=[];" vertex="1" connectable="0" parent="250">
                    <mxGeometry x="-0.5776" y="1" relative="1" as="geometry">
                        <mxPoint x="-27" y="-5" as="offset"/>
                    </mxGeometry>
                </mxCell>
                <mxCell id="252" value="" style="endArrow=none;html=1;rounded=0;entryX=0;entryY=0.5;entryDx=0;entryDy=0;" edge="1" parent="1">
                    <mxGeometry width="50" height="50" relative="1" as="geometry">
                        <mxPoint x="90" y="1250" as="sourcePoint"/>
                        <mxPoint x="230" y="1780" as="targetPoint"/>
                        <Array as="points">
                            <mxPoint x="110" y="1280"/>
                        </Array>
                    </mxGeometry>
                </mxCell>
                <mxCell id="253" value="Visualiser&amp;nbsp; l&#39;historique des trajets" style="ellipse;whiteSpace=wrap;html=1;" vertex="1" parent="1">
                    <mxGeometry x="190" y="1950" width="260" height="60" as="geometry"/>
                </mxCell>
                <mxCell id="254" value="" style="endArrow=none;html=1;rounded=0;entryX=0;entryY=0.5;entryDx=0;entryDy=0;" edge="1" parent="1">
                    <mxGeometry width="50" height="50" relative="1" as="geometry">
                        <mxPoint x="80" y="1240" as="sourcePoint"/>
                        <mxPoint x="230" y="1960" as="targetPoint"/>
                        <Array as="points">
                            <mxPoint x="110" y="1460"/>
                            <mxPoint x="170" y="1790"/>
                        </Array>
                    </mxGeometry>
                </mxCell>
                <mxCell id="255" value="Modifier mon profil" style="ellipse;whiteSpace=wrap;html=1;" vertex="1" parent="1">
                    <mxGeometry x="210" y="2070" width="260" height="60" as="geometry"/>
                </mxCell>
                <mxCell id="256" value="" style="endArrow=none;html=1;rounded=0;entryX=0;entryY=0.5;entryDx=0;entryDy=0;" edge="1" parent="1">
                    <mxGeometry width="50" height="50" relative="1" as="geometry">
                        <mxPoint x="60" y="1240" as="sourcePoint"/>
                        <mxPoint x="220" y="2090" as="targetPoint"/>
                        <Array as="points">
                            <mxPoint x="100" y="1590"/>
                            <mxPoint x="160" y="1920"/>
                        </Array>
                    </mxGeometry>
                </mxCell>
                <mxCell id="257" value="Passager" style="shape=umlActor;verticalLabelPosition=bottom;verticalAlign=top;html=1;outlineConnect=0;" vertex="1" parent="1">
                    <mxGeometry x="30" y="3070" width="50" height="100" as="geometry"/>
                </mxCell>
                <mxCell id="258" value="Saisir les coordonnÃ©es du trajet" style="ellipse;whiteSpace=wrap;html=1;" vertex="1" parent="1">
                    <mxGeometry x="170" y="3100" width="260" height="60" as="geometry"/>
                </mxCell>
                <mxCell id="259" value="Saisir coordonnÃ©e de dÃ©part" style="ellipse;whiteSpace=wrap;html=1;" vertex="1" parent="1">
                    <mxGeometry x="335" y="3220" width="155" height="60" as="geometry"/>
                </mxCell>
                <mxCell id="260" value="Saisir coordonnÃ©e&amp;nbsp;dâarrivÃ©e" style="ellipse;whiteSpace=wrap;html=1;" vertex="1" parent="1">
                    <mxGeometry x="140" y="3230" width="180" height="60" as="geometry"/>
                </mxCell>
                <mxCell id="261" value="" style="html=1;verticalAlign=bottom;endArrow=open;dashed=1;endSize=8;curved=0;rounded=0;entryX=0.435;entryY=0.036;entryDx=0;entryDy=0;exitX=0.776;exitY=0.964;exitDx=0;exitDy=0;exitPerimeter=0;entryPerimeter=0;" edge="1" parent="1" source="258" target="259">
                    <mxGeometry relative="1" as="geometry">
                        <mxPoint x="290" y="3160" as="sourcePoint"/>
                        <mxPoint x="1437" y="3100" as="targetPoint"/>
                    </mxGeometry>
                </mxCell>
                <mxCell id="262" value="&amp;lt;&amp;lt;include&amp;gt;&amp;gt;" style="edgeLabel;html=1;align=center;verticalAlign=middle;resizable=0;points=[];" vertex="1" connectable="0" parent="261">
                    <mxGeometry x="-0.5776" y="1" relative="1" as="geometry">
                        <mxPoint x="-138" y="14" as="offset"/>
                    </mxGeometry>
                </mxCell>
                <mxCell id="263" value="" style="html=1;verticalAlign=bottom;endArrow=open;dashed=1;endSize=8;curved=0;rounded=0;exitX=0.29;exitY=0.89;exitDx=0;exitDy=0;exitPerimeter=0;" edge="1" parent="1" source="258">
                    <mxGeometry relative="1" as="geometry">
                        <mxPoint x="320" y="3241" as="sourcePoint"/>
                        <mxPoint x="220" y="3230" as="targetPoint"/>
                    </mxGeometry>
                </mxCell>
                <mxCell id="264" value="&amp;lt;&amp;lt;include&amp;gt;&amp;gt;" style="edgeLabel;html=1;align=center;verticalAlign=middle;resizable=0;points=[];" vertex="1" connectable="0" parent="263">
                    <mxGeometry x="-0.5776" y="1" relative="1" as="geometry">
                        <mxPoint x="139" y="20" as="offset"/>
                    </mxGeometry>
                </mxCell>
                <mxCell id="265" value="Choisir le type de vÃ©hicule" style="ellipse;whiteSpace=wrap;html=1;" vertex="1" parent="1">
                    <mxGeometry x="630" y="3120" width="260" height="60" as="geometry"/>
                </mxCell>
                <mxCell id="266" value="" style="html=1;verticalAlign=bottom;endArrow=open;dashed=1;endSize=8;curved=0;rounded=0;entryX=0;entryY=0.5;entryDx=0;entryDy=0;exitX=1;exitY=0.5;exitDx=0;exitDy=0;" edge="1" parent="1" source="258" target="265">
                    <mxGeometry relative="1" as="geometry">
                        <mxPoint x="510" y="3036" as="sourcePoint"/>
                        <mxPoint x="540" y="3100" as="targetPoint"/>
                    </mxGeometry>
                </mxCell>
                <mxCell id="267" value="&amp;lt;&amp;lt;include&amp;gt;&amp;gt;" style="edgeLabel;html=1;align=center;verticalAlign=middle;resizable=0;points=[];" vertex="1" connectable="0" parent="266">
                    <mxGeometry x="-0.5776" y="1" relative="1" as="geometry">
                        <mxPoint x="30" y="-7" as="offset"/>
                    </mxGeometry>
                </mxCell>
                <mxCell id="268" value="WAV" style="ellipse;whiteSpace=wrap;html=1;" vertex="1" parent="1">
                    <mxGeometry x="879.28" y="3010" width="101.43" height="40" as="geometry"/>
                </mxCell>
                <mxCell id="269" value="black" style="ellipse;whiteSpace=wrap;html=1;" vertex="1" parent="1">
                    <mxGeometry x="769.28" y="3010" width="101.43" height="40" as="geometry"/>
                </mxCell>
                <mxCell id="270" value="comfort" style="ellipse;whiteSpace=wrap;html=1;" vertex="1" parent="1">
                    <mxGeometry x="659.28" y="3010" width="101.43" height="40" as="geometry"/>
                </mxCell>
                <mxCell id="271" value="basic" style="ellipse;whiteSpace=wrap;html=1;" vertex="1" parent="1">
                    <mxGeometry x="539.28" y="3010" width="101.43" height="40" as="geometry"/>
                </mxCell>
                <mxCell id="272" value="" style="html=1;verticalAlign=bottom;endArrow=open;dashed=1;endSize=8;curved=0;rounded=0;exitX=1;exitY=0;exitDx=0;exitDy=0;entryX=1;entryY=1;entryDx=0;entryDy=0;" edge="1" parent="1" source="265">
                    <mxGeometry relative="1" as="geometry">
                        <mxPoint x="1090" y="3112" as="sourcePoint"/>
                        <mxPoint x="950" y="3050" as="targetPoint"/>
                    </mxGeometry>
                </mxCell>
                <mxCell id="273" value="&amp;lt;&amp;lt;extends&amp;gt;&amp;gt;" style="edgeLabel;html=1;align=center;verticalAlign=middle;resizable=0;points=[];rotation=0;" vertex="1" connectable="0" parent="272">
                    <mxGeometry x="-0.5776" y="1" relative="1" as="geometry">
                        <mxPoint x="27" y="-14" as="offset"/>
                    </mxGeometry>
                </mxCell>
                <mxCell id="274" value="" style="html=1;verticalAlign=bottom;endArrow=open;dashed=1;endSize=8;curved=0;rounded=0;exitX=0.679;exitY=0;exitDx=0;exitDy=0;entryX=0.5;entryY=1;entryDx=0;entryDy=0;exitPerimeter=0;" edge="1" parent="1" source="265" target="269">
                    <mxGeometry relative="1" as="geometry">
                        <mxPoint x="760.71" y="3120" as="sourcePoint"/>
                        <mxPoint x="857.71" y="3041" as="targetPoint"/>
                    </mxGeometry>
                </mxCell>
                <mxCell id="275" value="&amp;lt;&amp;lt;extends&amp;gt;&amp;gt;" style="edgeLabel;html=1;align=center;verticalAlign=middle;resizable=0;points=[];rotation=0;" vertex="1" connectable="0" parent="274">
                    <mxGeometry x="-0.5776" y="1" relative="1" as="geometry">
                        <mxPoint x="27" y="-14" as="offset"/>
                    </mxGeometry>
                </mxCell>
                <mxCell id="276" value="" style="html=1;verticalAlign=bottom;endArrow=open;dashed=1;endSize=8;curved=0;rounded=0;exitX=0.438;exitY=0.049;exitDx=0;exitDy=0;entryX=0.5;entryY=1;entryDx=0;entryDy=0;exitPerimeter=0;" edge="1" parent="1" source="265">
                    <mxGeometry relative="1" as="geometry">
                        <mxPoint x="708.5" y="3120" as="sourcePoint"/>
                        <mxPoint x="721.5" y="3050" as="targetPoint"/>
                    </mxGeometry>
                </mxCell>
                <mxCell id="277" value="&amp;lt;&amp;lt;extends&amp;gt;&amp;gt;" style="edgeLabel;html=1;align=center;verticalAlign=middle;resizable=0;points=[];rotation=0;" vertex="1" connectable="0" parent="276">
                    <mxGeometry x="-0.5776" y="1" relative="1" as="geometry">
                        <mxPoint x="2" y="-18" as="offset"/>
                    </mxGeometry>
                </mxCell>
                <mxCell id="278" value="" style="html=1;verticalAlign=bottom;endArrow=open;dashed=1;endSize=8;curved=0;rounded=0;exitX=0.175;exitY=0.196;exitDx=0;exitDy=0;entryX=0.5;entryY=1;entryDx=0;entryDy=0;exitPerimeter=0;" edge="1" parent="1" source="265">
                    <mxGeometry relative="1" as="geometry">
                        <mxPoint x="635.53" y="3123" as="sourcePoint"/>
                        <mxPoint x="613.03" y="3050" as="targetPoint"/>
                    </mxGeometry>
                </mxCell>
                <mxCell id="279" value="&amp;lt;&amp;lt;extends&amp;gt;&amp;gt;" style="edgeLabel;html=1;align=center;verticalAlign=middle;resizable=0;points=[];rotation=0;" vertex="1" connectable="0" parent="278">
                    <mxGeometry x="-0.5776" y="1" relative="1" as="geometry">
                        <mxPoint x="2" y="-18" as="offset"/>
                    </mxGeometry>
                </mxCell>
                <mxCell id="280" value="Visualiser les dÃ©tails du trajet" style="ellipse;whiteSpace=wrap;html=1;" vertex="1" parent="1">
                    <mxGeometry x="640" y="3250" width="260" height="60" as="geometry"/>
                </mxCell>
                <mxCell id="281" value="" style="html=1;verticalAlign=bottom;endArrow=open;dashed=1;endSize=8;curved=0;rounded=0;entryX=0.999;entryY=0.609;entryDx=0;entryDy=0;exitX=0.021;exitY=0.323;exitDx=0;exitDy=0;entryPerimeter=0;exitPerimeter=0;" edge="1" parent="1" source="280" target="258">
                    <mxGeometry relative="1" as="geometry">
                        <mxPoint x="440" y="3200" as="sourcePoint"/>
                        <mxPoint x="640" y="3220" as="targetPoint"/>
                    </mxGeometry>
                </mxCell>
                <mxCell id="282" value="&amp;lt;&amp;lt;extends&amp;gt;&amp;gt;" style="edgeLabel;html=1;align=center;verticalAlign=middle;resizable=0;points=[];" vertex="1" connectable="0" parent="281">
                    <mxGeometry x="-0.5776" y="1" relative="1" as="geometry">
                        <mxPoint x="-49" y="-32" as="offset"/>
                    </mxGeometry>
                </mxCell>
                <mxCell id="283" value="" style="endArrow=none;html=1;rounded=0;entryX=0.159;entryY=0.145;entryDx=0;entryDy=0;entryPerimeter=0;" edge="1" parent="1" source="257" target="258">
                    <mxGeometry width="50" height="50" relative="1" as="geometry">
                        <mxPoint x="40" y="3111" as="sourcePoint"/>
                        <mxPoint x="180" y="3129" as="targetPoint"/>
                    </mxGeometry>
                </mxCell>
                <mxCell id="284" value="SÃ©lectionner les conducteurs disponibles en ligne" style="ellipse;whiteSpace=wrap;html=1;" vertex="1" parent="1">
                    <mxGeometry x="1040" y="3120" width="260" height="60" as="geometry"/>
                </mxCell>
                <mxCell id="285" value="" style="html=1;verticalAlign=bottom;endArrow=open;dashed=1;endSize=8;curved=0;rounded=0;entryX=0;entryY=0.5;entryDx=0;entryDy=0;exitX=1;exitY=0.5;exitDx=0;exitDy=0;" edge="1" parent="1" source="265" target="284">
                    <mxGeometry relative="1" as="geometry">
                        <mxPoint x="850" y="3140" as="sourcePoint"/>
                        <mxPoint x="1050" y="3160" as="targetPoint"/>
                    </mxGeometry>
                </mxCell>
                <mxCell id="286" value="&amp;lt;&amp;lt;include&amp;gt;&amp;gt;" style="edgeLabel;html=1;align=center;verticalAlign=middle;resizable=0;points=[];" vertex="1" connectable="0" parent="285">
                    <mxGeometry x="-0.5776" y="1" relative="1" as="geometry">
                        <mxPoint x="30" y="-7" as="offset"/>
                    </mxGeometry>
                </mxCell>
                <mxCell id="287" value="PassagÃ¨re" style="shape=umlActor;verticalLabelPosition=bottom;verticalAlign=top;html=1;outlineConnect=0;" vertex="1" parent="1">
                    <mxGeometry x="40" y="3490" width="50" height="100" as="geometry"/>
                </mxCell>
                <mxCell id="288" value="" style="endArrow=block;endSize=16;endFill=0;html=1;rounded=0;" edge="1" parent="1">
                    <mxGeometry width="160" relative="1" as="geometry">
                        <mxPoint x="64.95" y="3482.5" as="sourcePoint"/>
                        <mxPoint x="60" y="3200" as="targetPoint"/>
                    </mxGeometry>
                </mxCell>
                <mxCell id="289" value="Activer le mode rÃ©servÃ© aux conductrices uniquement" style="ellipse;whiteSpace=wrap;html=1;" vertex="1" parent="1">
                    <mxGeometry x="170" y="3510" width="310" height="60" as="geometry"/>
                </mxCell>
                <mxCell id="290" value="Completer le processus course" style="ellipse;whiteSpace=wrap;html=1;" vertex="1" parent="1">
                    <mxGeometry x="1410" y="3100" width="190" height="40" as="geometry"/>
                </mxCell>
                <mxCell id="291" value="Annuler la course" style="ellipse;whiteSpace=wrap;html=1;" vertex="1" parent="1">
                    <mxGeometry x="1390" y="3210" width="190" height="40" as="geometry"/>
                </mxCell>
                <mxCell id="292" value="" style="html=1;verticalAlign=bottom;endArrow=open;dashed=1;endSize=8;curved=0;rounded=0;exitX=0.063;exitY=0.338;exitDx=0;exitDy=0;entryX=1;entryY=1;entryDx=0;entryDy=0;exitPerimeter=0;" edge="1" parent="1" source="291" target="284">
                    <mxGeometry relative="1" as="geometry">
                        <mxPoint x="1250" y="3329" as="sourcePoint"/>
                        <mxPoint x="1348" y="3250" as="targetPoint"/>
                    </mxGeometry>
                </mxCell>
                <mxCell id="293" value="&amp;lt;&amp;lt;extends&amp;gt;&amp;gt;" style="edgeLabel;html=1;align=center;verticalAlign=middle;resizable=0;points=[];rotation=0;" vertex="1" connectable="0" parent="292">
                    <mxGeometry x="-0.5776" y="1" relative="1" as="geometry">
                        <mxPoint x="-22" y="-13" as="offset"/>
                    </mxGeometry>
                </mxCell>
                <mxCell id="294" value="" style="html=1;verticalAlign=bottom;endArrow=open;dashed=1;endSize=8;curved=0;rounded=0;exitX=0.063;exitY=0.236;exitDx=0;exitDy=0;entryX=0.831;entryY=0.151;entryDx=0;entryDy=0;exitPerimeter=0;entryPerimeter=0;" edge="1" parent="1" source="290" target="284">
                    <mxGeometry relative="1" as="geometry">
                        <mxPoint x="1217" y="3051" as="sourcePoint"/>
                        <mxPoint x="1410" y="3100" as="targetPoint"/>
                    </mxGeometry>
                </mxCell>
                <mxCell id="295" value="&amp;lt;&amp;lt;extends&amp;gt;&amp;gt;" style="edgeLabel;html=1;align=center;verticalAlign=middle;resizable=0;points=[];rotation=0;" vertex="1" connectable="0" parent="294">
                    <mxGeometry x="-0.5776" y="1" relative="1" as="geometry">
                        <mxPoint x="-36" y="5" as="offset"/>
                    </mxGeometry>
                </mxCell>
                <mxCell id="296" value="Effectuer le paiement de la course" style="ellipse;whiteSpace=wrap;html=1;" vertex="1" parent="1">
                    <mxGeometry x="1718.57" y="3070" width="190" height="40" as="geometry"/>
                </mxCell>
                <mxCell id="297" value="Ãvaluer le conducteur" style="ellipse;whiteSpace=wrap;html=1;" vertex="1" parent="1">
                    <mxGeometry x="1770" y="3180" width="128.57" height="50" as="geometry"/>
                </mxCell>
                <mxCell id="298" value="Ãvaluer avec des Ã©toiles" style="ellipse;whiteSpace=wrap;html=1;" vertex="1" parent="1">
                    <mxGeometry x="2030" y="3150" width="128.57" height="50" as="geometry"/>
                </mxCell>
                <mxCell id="299" value="Ajouter un commentaire" style="ellipse;whiteSpace=wrap;html=1;" vertex="1" parent="1">
                    <mxGeometry x="2020" y="3260" width="128.57" height="50" as="geometry"/>
                </mxCell>
                <mxCell id="300" value="" style="html=1;verticalAlign=bottom;endArrow=open;dashed=1;endSize=8;curved=0;rounded=0;exitX=0.996;exitY=0.417;exitDx=0;exitDy=0;exitPerimeter=0;entryX=0.019;entryY=0.414;entryDx=0;entryDy=0;entryPerimeter=0;" edge="1" parent="1" source="297" target="298">
                    <mxGeometry relative="1" as="geometry">
                        <mxPoint x="1819.29" y="3160.08" as="sourcePoint"/>
                        <mxPoint x="1960.7200000000003" y="3160" as="targetPoint"/>
                    </mxGeometry>
                </mxCell>
                <mxCell id="301" value="&amp;lt;&amp;lt;include&amp;gt;&amp;gt;" style="edgeLabel;html=1;align=center;verticalAlign=middle;resizable=0;points=[];rotation=0;" vertex="1" connectable="0" parent="300">
                    <mxGeometry x="-0.5776" y="1" relative="1" as="geometry">
                        <mxPoint x="34" y="-3" as="offset"/>
                    </mxGeometry>
                </mxCell>
                <mxCell id="302" value="" style="html=1;verticalAlign=bottom;endArrow=open;dashed=1;endSize=8;curved=0;rounded=0;exitX=0;exitY=0.5;exitDx=0;exitDy=0;entryX=1;entryY=1;entryDx=0;entryDy=0;" edge="1" parent="1" source="299" target="297">
                    <mxGeometry relative="1" as="geometry">
                        <mxPoint x="1886" y="3310" as="sourcePoint"/>
                        <mxPoint x="2020" y="3280" as="targetPoint"/>
                    </mxGeometry>
                </mxCell>
                <mxCell id="303" value="&amp;lt;&amp;lt;extends&amp;gt;&amp;gt;" style="edgeLabel;html=1;align=center;verticalAlign=middle;resizable=0;points=[];rotation=0;" vertex="1" connectable="0" parent="302">
                    <mxGeometry x="-0.5776" y="1" relative="1" as="geometry">
                        <mxPoint x="-36" y="-14" as="offset"/>
                    </mxGeometry>
                </mxCell>
                <mxCell id="304" value="" style="html=1;verticalAlign=bottom;endArrow=open;dashed=1;endSize=8;curved=0;rounded=0;entryX=0;entryY=0;entryDx=0;entryDy=0;exitX=0.708;exitY=-0.032;exitDx=0;exitDy=0;exitPerimeter=0;" edge="1" parent="1" source="290" target="296">
                    <mxGeometry relative="1" as="geometry">
                        <mxPoint x="1558.5700000000002" y="3110" as="sourcePoint"/>
                        <mxPoint x="1708.5700000000002" y="3110" as="targetPoint"/>
                    </mxGeometry>
                </mxCell>
                <mxCell id="305" value="&amp;lt;&amp;lt;include&amp;gt;&amp;gt;" style="edgeLabel;html=1;align=center;verticalAlign=middle;resizable=0;points=[];" vertex="1" connectable="0" parent="304">
                    <mxGeometry x="-0.5776" y="1" relative="1" as="geometry">
                        <mxPoint x="30" y="-7" as="offset"/>
                    </mxGeometry>
                </mxCell>
                <mxCell id="306" value="" style="html=1;verticalAlign=bottom;endArrow=open;dashed=1;endSize=8;curved=0;rounded=0;entryX=0.039;entryY=0.387;entryDx=0;entryDy=0;exitX=0.708;exitY=0.95;exitDx=0;exitDy=0;exitPerimeter=0;entryPerimeter=0;" edge="1" parent="1" source="290" target="297">
                    <mxGeometry relative="1" as="geometry">
                        <mxPoint x="1579" y="3216.5" as="sourcePoint"/>
                        <mxPoint x="1781" y="3193.5" as="targetPoint"/>
                    </mxGeometry>
                </mxCell>
                <mxCell id="307" value="&amp;lt;&amp;lt;include&amp;gt;&amp;gt;" style="edgeLabel;html=1;align=center;verticalAlign=middle;resizable=0;points=[];" vertex="1" connectable="0" parent="306">
                    <mxGeometry x="-0.5776" y="1" relative="1" as="geometry">
                        <mxPoint x="30" y="-7" as="offset"/>
                    </mxGeometry>
                </mxCell>
                <mxCell id="308" value="" style="endArrow=none;html=1;rounded=0;entryX=0.038;entryY=0.328;entryDx=0;entryDy=0;entryPerimeter=0;" edge="1" parent="1" target="289">
                    <mxGeometry width="50" height="50" relative="1" as="geometry">
                        <mxPoint x="90" y="3540" as="sourcePoint"/>
                        <mxPoint x="201" y="3535.5" as="targetPoint"/>
                    </mxGeometry>
                </mxCell>
                <mxCell id="309" value="" style="endArrow=none;dashed=1;html=1;dashPattern=1 3;strokeWidth=2;rounded=0;entryX=0;entryY=0;entryDx=0;entryDy=0;entryPerimeter=0;exitX=0.675;exitY=0.045;exitDx=0;exitDy=0;exitPerimeter=0;" edge="1" parent="1" target="310">
                    <mxGeometry width="50" height="50" relative="1" as="geometry">
                        <mxPoint x="480" y="3528" as="sourcePoint"/>
                        <mxPoint x="585" y="2646.17" as="targetPoint"/>
                        <Array as="points"/>
                    </mxGeometry>
                </mxCell>
                <mxCell id="310" value="&lt;p data-pm-slice=&quot;0 0 []&quot;&gt;Les passagÃ¨res ne peuvent voir que les disponibilitÃ©s des conductrices.&lt;/p&gt;" style="shape=note;whiteSpace=wrap;html=1;backgroundOutline=1;darkOpacity=0.05;align=left;" vertex="1" parent="1">
                    <mxGeometry x="615" y="3525" width="415" height="60" as="geometry"/>
                </mxCell>
                <mxCell id="311" value="visiteur" style="shape=umlActor;verticalLabelPosition=bottom;verticalAlign=top;html=1;outlineConnect=0;" vertex="1" parent="1">
                    <mxGeometry x="30" y="3890" width="50" height="100" as="geometry"/>
                </mxCell>
                <mxCell id="312" value="Creer compte&amp;nbsp;" style="ellipse;whiteSpace=wrap;html=1;" vertex="1" parent="1">
                    <mxGeometry x="160" y="3910" width="310" height="60" as="geometry"/>
                </mxCell>
                <mxCell id="313" value="" style="endArrow=none;html=1;rounded=0;entryX=0.038;entryY=0.328;entryDx=0;entryDy=0;entryPerimeter=0;" edge="1" parent="1" target="312">
                    <mxGeometry width="50" height="50" relative="1" as="geometry">
                        <mxPoint x="80" y="3940" as="sourcePoint"/>
                        <mxPoint x="191" y="3935.5" as="targetPoint"/>
                    </mxGeometry>
                </mxCell>
                <mxCell id="314" value="Visualiser la page d&#39;acceuil" style="ellipse;whiteSpace=wrap;html=1;" vertex="1" parent="1">
                    <mxGeometry x="180" y="4020" width="310" height="60" as="geometry"/>
                </mxCell>
                <mxCell id="315" value="" style="endArrow=none;dashed=1;html=1;dashPattern=1 3;strokeWidth=2;rounded=0;entryX=0;entryY=0;entryDx=0;entryDy=0;entryPerimeter=0;exitX=0.675;exitY=0.045;exitDx=0;exitDy=0;exitPerimeter=0;" edge="1" parent="1" target="316">
                    <mxGeometry width="50" height="50" relative="1" as="geometry">
                        <mxPoint x="480" y="4043" as="sourcePoint"/>
                        <mxPoint x="585" y="3161.17" as="targetPoint"/>
                        <Array as="points"/>
                    </mxGeometry>
                </mxCell>
                <mxCell id="316" value="&lt;p data-pm-slice=&quot;0 0 []&quot;&gt;Dans une perspective future : fournir une explication des lois rÃ©gissant les conducteurs et les passagers, ainsi que prÃ©senter les avantages liÃ©s Ã  lâutilisation de la plateforme inTime&lt;/p&gt;" style="shape=note;whiteSpace=wrap;html=1;backgroundOutline=1;darkOpacity=0.05;align=left;" vertex="1" parent="1">
                    <mxGeometry x="615" y="4040" width="435" height="60" as="geometry"/>
                </mxCell>
                <mxCell id="317" value="&amp;lt;&amp;lt;secondaire&amp;gt;&amp;gt;&lt;div&gt;&lt;br&gt;&lt;/div&gt;&lt;div&gt;systeme&lt;/div&gt;" style="rounded=0;whiteSpace=wrap;html=1;" vertex="1" parent="1">
                    <mxGeometry x="4636" y="2400" width="180" height="60" as="geometry"/>
                </mxCell>
                <mxCell id="318" value="DÃ©sactiver le compte du conducteur&amp;nbsp;" style="ellipse;whiteSpace=wrap;html=1;" vertex="1" parent="1">
                    <mxGeometry x="4116" y="2260" width="210" height="50" as="geometry"/>
                </mxCell>
                <mxCell id="319" value="" style="endArrow=none;html=1;rounded=0;entryX=0;entryY=0;entryDx=0;entryDy=0;" edge="1" parent="1" source="318" target="317">
                    <mxGeometry width="50" height="50" relative="1" as="geometry">
                        <mxPoint x="4446" y="2260" as="sourcePoint"/>
                        <mxPoint x="4496" y="2210" as="targetPoint"/>
                    </mxGeometry>
                </mxCell>
                <mxCell id="320" value="" style="endArrow=none;dashed=1;html=1;dashPattern=1 3;strokeWidth=2;rounded=0;exitX=0.939;exitY=0.172;exitDx=0;exitDy=0;exitPerimeter=0;" edge="1" parent="1" source="321" target="318">
                    <mxGeometry width="50" height="50" relative="1" as="geometry">
                        <mxPoint x="3986" y="2240" as="sourcePoint"/>
                        <mxPoint x="4120" y="2237" as="targetPoint"/>
                        <Array as="points">
                            <mxPoint x="4080" y="2207"/>
                        </Array>
                    </mxGeometry>
                </mxCell>
                <mxCell id="321" value="&lt;p data-pm-slice=&quot;0 0 []&quot;&gt;Activation de la mesure aprÃ¨s cinq refus consÃ©cutifs de demandes de passagers.&lt;/p&gt;" style="shape=note;whiteSpace=wrap;html=1;backgroundOutline=1;darkOpacity=0.05;align=left;" vertex="1" parent="1">
                    <mxGeometry x="3650" y="2240" width="326" height="60" as="geometry"/>
                </mxCell>
                <mxCell id="322" value="Effectuer le paiment" style="ellipse;whiteSpace=wrap;html=1;" vertex="1" parent="1">
                    <mxGeometry x="4126" y="2480" width="210" height="50" as="geometry"/>
                </mxCell>
                <mxCell id="323" value="" style="endArrow=none;html=1;rounded=0;entryX=0;entryY=0;entryDx=0;entryDy=0;" edge="1" parent="1" source="322">
                    <mxGeometry width="50" height="50" relative="1" as="geometry">
                        <mxPoint x="4296" y="2344" as="sourcePoint"/>
                        <mxPoint x="4642" y="2440" as="targetPoint"/>
                    </mxGeometry>
                </mxCell>
                <mxCell id="324" value="" style="html=1;verticalAlign=bottom;endArrow=open;dashed=1;endSize=8;curved=0;rounded=0;exitX=0.5;exitY=0;exitDx=0;exitDy=0;entryX=1;entryY=0.5;entryDx=0;entryDy=0;" edge="1" parent="1" source="200" target="190">
                    <mxGeometry relative="1" as="geometry">
                        <mxPoint x="360" y="1100" as="sourcePoint"/>
                        <mxPoint x="1790" y="700" as="targetPoint"/>
                        <Array as="points">
                            <mxPoint x="610" y="1050"/>
                            <mxPoint x="1100" y="1120"/>
                        </Array>
                    </mxGeometry>
                </mxCell>
                <mxCell id="325" value="&amp;lt;&amp;lt;include&amp;gt;&amp;gt;" style="edgeLabel;html=1;align=center;verticalAlign=middle;resizable=0;points=[];" connectable="0" vertex="1" parent="324">
                    <mxGeometry x="-0.5776" y="1" relative="1" as="geometry">
                        <mxPoint as="offset"/>
                    </mxGeometry>
                </mxCell>
                <mxCell id="326" value="" style="html=1;verticalAlign=bottom;endArrow=open;dashed=1;endSize=8;curved=0;rounded=0;exitX=0.5;exitY=0;exitDx=0;exitDy=0;" edge="1" parent="1" source="221" target="190">
                    <mxGeometry relative="1" as="geometry">
                        <mxPoint x="458.57" y="1425" as="sourcePoint"/>
                        <mxPoint x="1908.57" y="600" as="targetPoint"/>
                        <Array as="points">
                            <mxPoint x="760" y="1350"/>
                            <mxPoint x="1238.57" y="1385"/>
                        </Array>
                    </mxGeometry>
                </mxCell>
                <mxCell id="327" value="&amp;lt;&amp;lt;include&amp;gt;&amp;gt;" style="edgeLabel;html=1;align=center;verticalAlign=middle;resizable=0;points=[];" connectable="0" vertex="1" parent="326">
                    <mxGeometry x="-0.5776" y="1" relative="1" as="geometry">
                        <mxPoint as="offset"/>
                    </mxGeometry>
                </mxCell>
                <mxCell id="328" value="" style="html=1;verticalAlign=bottom;endArrow=open;dashed=1;endSize=8;curved=0;rounded=0;exitX=0.55;exitY=0.044;exitDx=0;exitDy=0;exitPerimeter=0;" edge="1" parent="1" source="245" target="190">
                    <mxGeometry relative="1" as="geometry">
                        <mxPoint x="615" y="1770" as="sourcePoint"/>
                        <mxPoint x="1961" y="760" as="targetPoint"/>
                        <Array as="points">
                            <mxPoint x="1055" y="1740"/>
                            <mxPoint x="1740" y="1780"/>
                        </Array>
                    </mxGeometry>
                </mxCell>
                <mxCell id="329" value="&amp;lt;&amp;lt;include&amp;gt;&amp;gt;" style="edgeLabel;html=1;align=center;verticalAlign=middle;resizable=0;points=[];" connectable="0" vertex="1" parent="328">
                    <mxGeometry x="-0.5776" y="1" relative="1" as="geometry">
                        <mxPoint as="offset"/>
                    </mxGeometry>
                </mxCell>
                <mxCell id="330" value="" style="html=1;verticalAlign=bottom;endArrow=open;dashed=1;endSize=8;curved=0;rounded=0;exitX=1;exitY=0.5;exitDx=0;exitDy=0;" edge="1" parent="1" source="253" target="190">
                    <mxGeometry relative="1" as="geometry">
                        <mxPoint x="491.57" y="1983" as="sourcePoint"/>
                        <mxPoint x="1750" y="350" as="targetPoint"/>
                        <Array as="points">
                            <mxPoint x="1213.57" y="1950"/>
                            <mxPoint x="1898.57" y="1990"/>
                        </Array>
                    </mxGeometry>
                </mxCell>
                <mxCell id="331" value="&amp;lt;&amp;lt;include&amp;gt;&amp;gt;" style="edgeLabel;html=1;align=center;verticalAlign=middle;resizable=0;points=[];" connectable="0" vertex="1" parent="330">
                    <mxGeometry x="-0.5776" y="1" relative="1" as="geometry">
                        <mxPoint as="offset"/>
                    </mxGeometry>
                </mxCell>
                <mxCell id="332" value="" style="html=1;verticalAlign=bottom;endArrow=open;dashed=1;endSize=8;curved=0;rounded=0;entryX=1;entryY=0;entryDx=0;entryDy=0;" edge="1" parent="1" source="255" target="190">
                    <mxGeometry relative="1" as="geometry">
                        <mxPoint x="470" y="2100" as="sourcePoint"/>
                        <mxPoint x="1770" y="470" as="targetPoint"/>
                        <Array as="points">
                            <mxPoint x="1233.57" y="2070"/>
                            <mxPoint x="1918.57" y="2110"/>
                        </Array>
                    </mxGeometry>
                </mxCell>
                <mxCell id="333" value="&amp;lt;&amp;lt;include&amp;gt;&amp;gt;" style="edgeLabel;html=1;align=center;verticalAlign=middle;resizable=0;points=[];" connectable="0" vertex="1" parent="332">
                    <mxGeometry x="-0.5776" y="1" relative="1" as="geometry">
                        <mxPoint as="offset"/>
                    </mxGeometry>
                </mxCell>
                <mxCell id="334" value="" style="html=1;verticalAlign=bottom;endArrow=open;dashed=1;endSize=8;curved=0;rounded=0;entryX=1;entryY=0.5;entryDx=0;entryDy=0;exitX=0.396;exitY=0.074;exitDx=0;exitDy=0;exitPerimeter=0;" edge="1" parent="1" source="212" target="190">
                    <mxGeometry relative="1" as="geometry">
                        <mxPoint x="550" y="2175" as="sourcePoint"/>
                        <mxPoint x="1825" y="390" as="targetPoint"/>
                        <Array as="points">
                            <mxPoint x="1314.57" y="2149"/>
                            <mxPoint x="1999.57" y="2189"/>
                        </Array>
                    </mxGeometry>
                </mxCell>
                <mxCell id="335" value="&amp;lt;&amp;lt;include&amp;gt;&amp;gt;" style="edgeLabel;html=1;align=center;verticalAlign=middle;resizable=0;points=[];" connectable="0" vertex="1" parent="334">
                    <mxGeometry x="-0.5776" y="1" relative="1" as="geometry">
                        <mxPoint as="offset"/>
                    </mxGeometry>
                </mxCell>
                <mxCell id="336" value="" style="html=1;verticalAlign=bottom;endArrow=open;dashed=1;endSize=8;curved=0;rounded=0;exitX=0.377;exitY=0.058;exitDx=0;exitDy=0;exitPerimeter=0;" edge="1" parent="1" source="217" target="190">
                    <mxGeometry relative="1" as="geometry">
                        <mxPoint x="560" y="2400" as="sourcePoint"/>
                        <mxPoint x="1760" y="330" as="targetPoint"/>
                        <Array as="points">
                            <mxPoint x="1541.57" y="2325"/>
                            <mxPoint x="2226.5699999999997" y="2365"/>
                        </Array>
                    </mxGeometry>
                </mxCell>
                <mxCell id="337" value="&amp;lt;&amp;lt;include&amp;gt;&amp;gt;" style="edgeLabel;html=1;align=center;verticalAlign=middle;resizable=0;points=[];" connectable="0" vertex="1" parent="336">
                    <mxGeometry x="-0.5776" y="1" relative="1" as="geometry">
                        <mxPoint as="offset"/>
                    </mxGeometry>
                </mxCell>
                <mxCell id="338" value="" style="endArrow=none;html=1;rounded=0;entryX=0;entryY=0.5;entryDx=0;entryDy=0;" edge="1" parent="1" source="311" target="314">
                    <mxGeometry width="50" height="50" relative="1" as="geometry">
                        <mxPoint x="88" y="3960" as="sourcePoint"/>
                        <mxPoint x="180" y="3950" as="targetPoint"/>
                    </mxGeometry>
                </mxCell>
                <mxCell id="339" value="" style="html=1;verticalAlign=bottom;endArrow=open;dashed=1;endSize=8;curved=0;rounded=0;exitX=0.5;exitY=0;exitDx=0;exitDy=0;entryX=0.917;entryY=0.297;entryDx=0;entryDy=0;entryPerimeter=0;" edge="1" parent="1" source="258" target="190">
                    <mxGeometry relative="1" as="geometry">
                        <mxPoint x="480" y="2633" as="sourcePoint"/>
                        <mxPoint x="1922" y="470" as="targetPoint"/>
                        <Array as="points">
                            <mxPoint x="1703.57" y="2465"/>
                            <mxPoint x="2388.5699999999997" y="2505"/>
                        </Array>
                    </mxGeometry>
                </mxCell>
                <mxCell id="340" value="&amp;lt;&amp;lt;include&amp;gt;&amp;gt;" style="edgeLabel;html=1;align=center;verticalAlign=middle;resizable=0;points=[];" connectable="0" vertex="1" parent="339">
                    <mxGeometry x="-0.5776" y="1" relative="1" as="geometry">
                        <mxPoint as="offset"/>
                    </mxGeometry>
                </mxCell>
                <mxCell id="341" value="" style="html=1;verticalAlign=bottom;endArrow=open;dashed=1;endSize=8;curved=0;rounded=0;exitX=0.665;exitY=-0.016;exitDx=0;exitDy=0;exitPerimeter=0;" edge="1" parent="1" source="289">
                    <mxGeometry relative="1" as="geometry">
                        <mxPoint x="432.5" y="3510" as="sourcePoint"/>
                        <mxPoint x="2400" y="550" as="targetPoint"/>
                        <Array as="points">
                            <mxPoint x="2240" y="3330"/>
                            <mxPoint x="2521.0699999999997" y="2915"/>
                        </Array>
                    </mxGeometry>
                </mxCell>
                <mxCell id="342" value="&amp;lt;&amp;lt;include&amp;gt;&amp;gt;" style="edgeLabel;html=1;align=center;verticalAlign=middle;resizable=0;points=[];" connectable="0" vertex="1" parent="341">
                    <mxGeometry x="-0.5776" y="1" relative="1" as="geometry">
                        <mxPoint as="offset"/>
                    </mxGeometry>
                </mxCell>
            </root>
        </mxGraphModel>
    </diagram>
</mxfile>